<svg width="52" height="52" viewBox="0 0 52 52" fill="none" xmlns="http://www.w3.org/2000/svg">
<path fill-rule="evenodd" clip-rule="evenodd" d="M1.7439 8.73615C0 12.1587 0 16.6392 0 25.6V26.4C0 35.3608 0 39.8413 1.7439 43.2638C3.27787 46.2744 5.72556 48.7221 8.73615 50.2561C12.1587 52 16.6392 52 25.6 52H26.4C35.3608 52 39.8413 52 43.2638 50.2561C46.2744 48.7221 48.7221 46.2744 50.2561 43.2638C52 39.8413 52 35.3608 52 26.4V25.6C52 16.6392 52 12.1587 50.2561 8.73615C48.7221 5.72556 46.2744 3.27787 43.2638 1.7439C39.8413 0 35.3608 0 26.4 0H25.6C16.6392 0 12.1587 0 8.73615 1.7439C5.72556 3.27787 3.27787 5.72556 1.7439 8.73615ZM36.8266 8.17382C33.8709 5.21811 29.5629 4.06377 25.5253 5.14563L15.9723 7.70535C11.9347 8.78722 8.781 11.9409 7.69913 15.9785L5.13941 25.5315C4.05754 29.5691 5.21187 33.8771 8.16759 36.8328L15.1609 43.8261C18.1166 46.7818 22.4246 47.9362 26.4622 46.8543L36.0152 44.2946C40.0528 43.2127 43.2065 40.059 44.2884 36.0215L46.8481 26.4684C47.93 22.4309 46.7756 18.1228 43.8199 15.1671L36.8266 8.17382Z" fill="black"/>
<path d="M14.668 23.1667C14.668 17.8241 14.668 15.1528 16.3277 13.4931C17.9874 11.8334 20.6587 11.8334 26.0013 11.8334C31.3439 11.8334 34.0152 11.8334 35.6749 13.4931C37.3346 15.1528 37.3346 17.8241 37.3346 23.1667V28.8334C37.3346 34.176 37.3346 36.8472 35.6749 38.507C34.0152 40.1667 31.3439 40.1667 26.0013 40.1667C20.6587 40.1667 17.9874 40.1667 16.3277 38.507C14.668 36.8472 14.668 34.176 14.668 28.8334V23.1667Z" stroke="black" stroke-width="3"/>
<path d="M30.25 35.9166H21.75" stroke="black" stroke-width="2" stroke-linecap="round"/>
</svg>
