<?xml version="1.0" encoding="UTF-8"?>
<svg height="16px" viewBox="0 0 16 16" width="16px" xmlns="http://www.w3.org/2000/svg">
  <metadata>
    Created by Viktoria 'gingercat' Zubacheva
    Licensed under Creative Commons Attribution-ShareAlike 4.0 International (CC BY-SA 4.0)
    https://creativecommons.org/licenses/by-sa/4.0/
  </metadata>
    <g fill-rule="evenodd">
        <path d="m 10.96875 3.007812 c -1.21875 0 -2.230469 0.992188 -2.230469 2.210938 s 1.011719 2.214844 2.230469 2.214844 c 1.222656 0 2.230469 -0.996094 2.230469 -2.214844 s -1.007813 -2.210938 -2.230469 -2.210938 z m 0 1.3125 c 0.519531 0 0.917969 0.398438 0.917969 0.898438 s -0.398438 0.902344 -0.917969 0.902344 c -0.515625 0 -0.917969 -0.402344 -0.917969 -0.902344 s 0.402344 -0.898438 0.917969 -0.898438 z m 0 0"/>
        <path d="m 14.207031 0.0664062 c -1.507812 0.015625 -4.566406 0.2656248 -7.234375 2.0429688 c -0.34375 -0.003906 -3.109375 0.035156 -5.070312 1.605469 c -2.171875 1.742187 -1.9414065 4.28125 -1.9414065 4.28125 l 0.109375 1.03125 l 0.9726565 -0.355469 c 0.757812 -0.277344 1.277343 -0.710937 2.726562 -0.671875 c 0.949219 0.023438 2.066407 0.261719 3.019531 0.65625 c 0.183594 0.074219 0.402344 0.210938 0.570313 0.328125 c 0.164063 0.117187 0.382813 0.082031 0.492187 -0.085937 l 0.464844 -0.707032 c 0.121094 -0.1875 0.085938 -0.460937 -0.09375 -0.59375 c -0.128906 -0.097656 -0.269531 -0.195312 -0.378906 -0.25 c -0.675781 -0.339844 -1.402344 -0.601562 -2.148438 -0.75 c -0.28125 -0.054687 -0.40625 -0.292968 -0.273437 -0.546875 c 0.175781 -0.335937 0.394531 -0.703125 0.847656 -1.210937 c 2.441407 -2.734375 5.453125 -3.101563 7.953125 -3.160156 c 0.074219 0 0.15625 0.050781 0.164063 0.152343 c 0.207031 2.609375 -0.28125 5.042969 -1.753907 7.15625 c -0.851562 1.050781 -1.828124 1.699219 -2.722656 1.945313 l -0.777344 0.214844 c -0.085937 1.609374 -0.175781 3.21875 -0.265624 4.828124 l 0.902343 -0.050781 s 3.050781 -0.0625 4.40625 -2.414062 c 1.09375 -1.894531 0.808594 -4.28125 0.683594 -5.015625 c 1.28125 -2.523438 1.246094 -5.347656 1.140625 -6.777344 c -0.070312 -0.957031 -0.835938 -1.6640625 -1.792969 -1.6523438 z m -9.4375 4.0312498 c -0.738281 0.847656 -1.246093 1.550782 -1.558593 2.363282 c -0.605469 0.121093 -1.050782 0.265624 -1.546876 0.402343 c 0.140626 -0.558593 0.472657 -1.265625 1.25 -1.886719 c 0.519532 -0.414062 1.199219 -0.695312 1.855469 -0.878906 z m 8.527344 6.574219 c -0.050781 0.710937 -0.191406 1.464844 -0.519531 2.035156 c -0.503906 0.871094 -1.441406 1.210938 -2.1875 1.398438 l 0.09375 -1.71875 c 0.925781 -0.324219 1.816406 -0.90625 2.613281 -1.714844 z m 0 0"/>
        <path d="m 3.1875 9.039062 l -1.019531 6.125 l 5.832031 -2.253906 c 0 -1.5625 -0.726562 -2.5 -1.390625 -3.035156 c -1.121094 -0.902344 -2.605469 -0.945312 -3.421875 -0.835938 z m 1.105469 1.382813 c 0.511719 -0.0625 1.039062 0.09375 1.457031 0.417969 c 0.433594 0.335937 0.671875 0.792968 0.773438 1.226562 l -2.761719 1.109375 z m 0 0"/>
    </g>
</svg>
