<?xml version="1.0" encoding="UTF-8"?>
<svg height="128px" viewBox="0 0 128 128" width="128px" xmlns="http://www.w3.org/2000/svg" xmlns:xlink="http://www.w3.org/1999/xlink">
  <metadata>
    Created by Viktoria 'gingercat' Zubacheva
    Licensed under Creative Commons Attribution-ShareAlike 4.0 International (CC BY-SA 4.0)
    https://creativecommons.org/licenses/by-sa/4.0/
  </metadata>
    <linearGradient id="a" gradientUnits="userSpaceOnUse" x1="8.13301102722" x2="119.85494920889" y1="65.740853" y2="65.740853">
        <stop offset="0" stop-color="#a51d2d"/>
        <stop offset="0.0415546" stop-color="#e66100"/>
        <stop offset="0.0718788" stop-color="#c64600"/>
        <stop offset="0.565936" stop-color="#a51d2d"/>
        <stop offset="0.878512" stop-color="#a51d2d"/>
        <stop offset="0.955033" stop-color="#e66100"/>
        <stop offset="1" stop-color="#a51d2d"/>
    </linearGradient>
    <linearGradient id="b" gradientUnits="userSpaceOnUse" x1="-13.52956687697" x2="253.87498681138" y1="59.77459211855" y2="59.77459211855">
        <stop offset="0" stop-color="#1a5fb4"/>
        <stop offset="1" stop-color="#a51d2d"/>
    </linearGradient>
    <linearGradient id="c" gradientUnits="userSpaceOnUse" x1="61.02640511171" x2="61.02640511171" y1="9.71006542736" y2="123.43809863444">
        <stop offset="0" stop-color="#613583"/>
        <stop offset="0.378591" stop-color="#a51d2d"/>
        <stop offset="1" stop-color="#ffa348"/>
    </linearGradient>
    <linearGradient id="d" gradientUnits="userSpaceOnUse">
        <stop offset="0" stop-color="#613583"/>
        <stop offset="1" stop-color="#c64600"/>
    </linearGradient>
    <linearGradient id="e" x1="62.23300081316" x2="62.23300081316" xlink:href="#d" y1="19.80011508409" y2="126.39828007826"/>
    <linearGradient id="f" gradientUnits="userSpaceOnUse">
        <stop offset="0" stop-color="#a51d2d"/>
        <stop offset="1" stop-color="#ffffff"/>
    </linearGradient>
    <linearGradient id="g" x1="46.88827474642" x2="46.88827474642" xlink:href="#f" y1="25.70232677297" y2="103.73532510936"/>
    <linearGradient id="h" x1="26.07348467526" x2="26.07348467526" xlink:href="#d" y1="28.55880985664" y2="106.07761883856"/>
    <linearGradient id="i" x1="74.92048898996" x2="74.92048898996" xlink:href="#f" y1="7.82619215978" y2="101.51846138234"/>
    <linearGradient id="j" gradientTransform="matrix(1.143678 -0.00814044 0.00814044 1.143678 -19.122315 -9.057824)" gradientUnits="userSpaceOnUse" x1="71.518173" x2="26.306307" y1="49.008614" y2="83.42672">
        <stop offset="0" stop-color="#e66100"/>
        <stop offset="0.374133" stop-color="#c01c28"/>
        <stop offset="1" stop-color="#1a5fb4"/>
    </linearGradient>
    <radialGradient id="k" cx="6.712179" cy="79.33107" gradientTransform="matrix(0.951443 1.621189 -2.021142 1.186167 192.492712 -42.936424)" gradientUnits="userSpaceOnUse" r="5.508918">
        <stop offset="0" stop-color="#c0bfbc"/>
        <stop offset="1" stop-color="#5e5c64"/>
    </radialGradient>
    <linearGradient id="l" gradientTransform="matrix(1.218315 -0.0086717 0.0086717 1.218315 -31.356524 -13.926912)" gradientUnits="userSpaceOnUse" x1="77.462212" x2="77.716522" y1="55.357853" y2="37.248207">
        <stop offset="0" stop-color="#9a9996"/>
        <stop offset="0.47902" stop-color="#f6f5f4"/>
        <stop offset="1" stop-color="#9a9996"/>
    </linearGradient>
    <linearGradient id="m" gradientTransform="matrix(1.218315 -0.0086717 0.0086717 1.218315 -31.356524 -13.926912)" gradientUnits="userSpaceOnUse" x1="75.302124" x2="75.491554" y1="59.887852" y2="33.274574">
        <stop offset="0" stop-color="#ff7800"/>
        <stop offset="1" stop-color="#9141ac"/>
    </linearGradient>
    <radialGradient id="n" cx="89.249413" cy="44.627506" gradientTransform="matrix(4.411802 -2.547155 1.873464 3.244941 -397.529968 110.92836)" gradientUnits="userSpaceOnUse" r="8.112428">
        <stop offset="0" stop-color="#e01b24"/>
        <stop offset="1" stop-color="#1a5fb4"/>
    </radialGradient>
    <linearGradient id="o" gradientTransform="matrix(0.969931 -0.793093 0.793093 0.969931 -30.792162 -17.333179)" gradientUnits="userSpaceOnUse" x1="11.801732" x2="-44.354202" y1="84.79863" y2="84.69519">
        <stop offset="0" stop-color="#e66100"/>
        <stop offset="0.181492" stop-color="#e01b24"/>
        <stop offset="1" stop-color="#1c71d8"/>
    </linearGradient>
    <g fill-rule="evenodd">
        <path d="m 119.992188 68.003906 c 0 30.925782 -25.070313 55.996094 -55.996094 55.996094 c -30.925782 0 -55.996094 -25.070312 -55.996094 -55.996094 c 0 -30.925781 25.070312 -55.996094 55.996094 -55.996094 c 30.925781 0 55.996094 25.070313 55.996094 55.996094 z m 0 0" fill="url(#a)"/>
        <path d="m 119.992188 62.746094 c 0 30.925781 -25.070313 55.996094 -55.996094 55.996094 c -30.925782 0 -55.996094 -25.070313 -55.996094 -55.996094 c 0 -30.925782 25.070312 -55.996094 55.996094 -55.996094 c 30.925781 0 55.996094 25.070312 55.996094 55.996094 z m 0 0" fill="url(#b)"/>
        <path d="m 37.199219 52.789062 c -7.496094 -0.050781 -19.4375 6.015626 -29.066407 13.839844 c 0 0 0.25 11.78125 7.101563 23.648438 c 1.972656 3.414062 15.722656 28.464844 48.761719 28.464844 c 17.945312 0 28.546875 -5.902344 38.605468 -15.4375 c 22.777344 -21.585938 17.875 -49.675782 14.570313 -58.105469 c -6.03125 33.976562 -28.082031 43.945312 -43.304687 43.945312 c -23.648438 0 -28.1875 -13.878906 -28.1875 -20.664062 c 0 -8.339844 -4.761719 -15.667969 -8.480469 -15.691407 z m 0 0" fill="url(#c)"/>
        <path d="m 35.675781 55.554688 c -16.789062 7.3125 -15.875 16.777343 -12.140625 30.710937 c 3.300782 12.324219 22.949219 24.734375 41.289063 25.722656 c 20.691406 1.117188 25.683593 -1.574219 25.804687 -1.621093 c 4.921875 -1.921876 9.273438 -3.113282 12.960938 -8.027344 c 0 0 -9.535156 7.578125 -38.582032 6.195312 c -18.160156 -0.863281 -37.488281 -16.015625 -41.136718 -29.640625 c -4.625 -17.261719 3.273437 -13.726562 12.835937 -21.730469 z m 0 0" fill="url(#e)"/>
        <path d="m 35.148438 58.121094 c -10.621094 2.847656 -17.292969 13.273437 -14.214844 24.769531 c 3.945312 14.726563 21.609375 28.925781 43.0625 30.625 c 20.152344 1.597656 27.617187 -1.667969 27.617187 -1.667969 c 3.582031 -1.953125 8.492188 -5.519531 11.132813 -8.457031 c 0 0 -7.65625 8.5625 -37.675782 6.675781 c -19.332031 -1.214844 -37.226562 -15.464844 -40.3125 -26.992187 c -3.019531 -11.257813 -0.382812 -17.679688 11.105469 -23.136719 z m 0 0" fill="url(#g)"/>
        <path d="m 40.210938 61.652344 s -6.332032 7.351562 -3.304688 16.101562 c 1.515625 4.375 6.5625 10.542969 11.84375 13.8125 c 5.28125 3.269532 13.226562 6.28125 23.976562 6.28125 c 24.917969 0 39.605469 -15.277344 45.667969 -23.417968 c 0.683594 -2.859376 1.34375 -4.945313 1.527344 -8.6875 c -0.027344 0.046874 -17.117187 29.46875 -47.707031 29.46875 c -10.457032 0 -17.4375 -2.484376 -22.277344 -5.480469 c -4.839844 -3 -9.914062 -9.019531 -11.289062 -13 c -2.753907 -7.960938 2.03125 -14.210938 2.03125 -14.210938 z m 0 0" fill="url(#h)"/>
        <path d="m 40.210938 63.621094 s -6.464844 -0.4375 -5.0625 11.445312 c 0.9375 7.96875 8.320312 15.203125 13.601562 18.472656 c 5.28125 3.269532 13.226562 6.277344 23.976562 6.277344 c 24.917969 0 39.605469 -15.273437 45.667969 -23.417968 c 0.683594 -2.855469 1.105469 -5.589844 1.34375 -8.117188 c -0.027343 0.046875 -16.933593 28.902344 -47.523437 28.902344 c -10.457032 0 -17.4375 -2.488282 -22.277344 -5.484375 c -4.839844 -2.996094 -12.058594 -9.730469 -13.125 -18.496094 c -1.015625 -8.363281 3.867188 -8.714844 3.867188 -8.714844 z m 0 0" fill="url(#i)"/>
    </g>
    <path d="m 70.027344 58.480469 c -5.175782 4.664062 -23.007813 15.042969 -32.253906 3.835937 c -8.234376 -9.980468 5.054687 -25.5625 10.363281 -29.941406 c 9.300781 -7.671875 35.28125 -12.945312 38.335937 -9.238281 c 3.003906 3.636719 -6.03125 25.957031 -16.445312 35.34375 z m 0 0" fill="#ffffff"/>
    <path d="m 20.539062 46.273438 c 5.152344 -8.5625 16.015626 -13.351563 25.875 -13.855469 c 0.949219 -0.046875 1.765626 0.742187 1.554688 1.667969 c -0.871094 3.800781 -4.75 10.519531 -9.960938 14.417968 c -1.011718 0.757813 -2.828124 0.804688 -4.003906 0.34375 c -4.457031 -1.746094 -7.613281 -1.597656 -10.136718 -0.382812 c -4.210938 2.03125 -5.746094 1.824218 -3.328126 -2.191406 z m 30.746094 36.894531 c 9.351563 -3.523438 16.019532 -13.34375 18.292969 -22.949219 c 0.21875 -0.925781 -0.410156 -1.871094 -1.359375 -1.832031 c -3.894531 0.171875 -11.203125 2.773437 -15.980469 7.195312 c -0.925781 0.859375 -1.300781 2.640625 -1.058593 3.878907 c 0.914062 4.699218 0.199218 7.777343 -1.449219 10.039062 c -2.757813 3.777344 -2.832031 5.324219 1.554687 3.667969 z m 0 0" fill="url(#j)"/>
    <path d="m 35.121094 50.757812 l 0.875 -1.070312 c 1.25 10.371094 7.09375 15.894531 13.941406 17.613281 l -0.882812 0.273438 c -1.8125 0.558593 -4.738282 0.484375 -6.371094 -0.476563 c -4.78125 -2.8125 -7.4375 -7.105468 -8.636719 -12.089844 c -0.3125 -1.300781 0.230469 -3.214843 1.074219 -4.25 z m 0 0" fill="url(#k)" fill-rule="evenodd"/>
    <path d="m 71.859375 42.734375 c 0.035156 5.148437 -4.109375 9.351563 -9.261719 9.390625 c -5.148437 0.035156 -9.351562 -4.109375 -9.390625 -9.257812 c -0.035156 -5.152344 4.109375 -9.355469 9.257813 -9.394532 c 5.152344 -0.035156 9.355468 4.109375 9.394531 9.261719 z m 0 0" fill="#77767b" fill-rule="evenodd"/>
    <path d="m 71.851562 41.632812 c 0.035157 5.148438 -4.109374 9.355469 -9.261718 9.390626 c -5.148438 0.035156 -9.351563 -4.109376 -9.390625 -9.257813 c -0.035157 -5.152344 4.109375 -9.355469 9.257812 -9.390625 c 5.152344 -0.039062 9.355469 4.109375 9.394531 9.257812 z m 0 0" fill="url(#l)" fill-rule="evenodd"/>
    <path d="m 69.164062 41.652344 c 0.027344 3.667968 -2.925781 6.660156 -6.59375 6.6875 c -3.664062 0.027344 -6.660156 -2.925782 -6.6875 -6.59375 c -0.023437 -3.667969 2.925782 -6.660156 6.59375 -6.6875 c 3.667969 -0.027344 6.664063 2.925781 6.6875 6.59375 z m 0 0" fill="url(#m)" fill-rule="evenodd"/>
    <path d="m 85.082031 22 c -3.890625 -0.355469 -8.417969 -0.078125 -13.488281 1.074219 c 2.011719 7.566406 4.996094 11.457031 11.613281 15.910156 c 3.851563 -6.96875 4.359375 -12.820313 4.382813 -14.265625 c 0.015625 -1.191406 -0.296875 -2.515625 -2.507813 -2.71875 z m 0 0" fill="url(#n)" fill-rule="evenodd"/>
    <path d="m 62.476562 35.058594 c -3.667968 0.023437 -6.617187 3.019531 -6.59375 6.6875 c 0.007813 0.175781 0.019532 0.351562 0.039063 0.527344 c 0.253906 -3.445313 3.105469 -6.125 6.5625 -6.15625 c 3.457031 -0.015626 6.347656 2.621093 6.648437 6.0625 c 0.019532 -0.175782 0.027344 -0.351563 0.03125 -0.527344 c -0.023437 -3.667969 -3.019531 -6.621094 -6.6875 -6.59375 z m 0 0" fill="#3d3846" fill-rule="evenodd"/>
    <path d="m 56.039062 43.125 l 11.738282 -5.507812 c 0.605468 0.78125 1.160156 1.75 1.328125 3.199218 l -11.398438 5.453125 c -0.867187 -0.878906 -1.414062 -1.949219 -1.667969 -3.144531 z m 0 0" fill="#ffffff" fill-opacity="0.291441" fill-rule="evenodd"/>
    <path d="m 51.628906 54.3125 c -1.214844 2.855469 -3.449218 6.964844 -7.089844 9.941406 c -4.0625 3.324219 -12.160156 7.199219 -17.246093 9.472656 c -2.46875 1.101563 -3.320313 0.085938 -1.796875 -2.152343 c 3.136718 -4.609375 8.402344 -11.890625 12.464844 -15.214844 c 3.808593 -3.113281 8.296874 -4.429687 11.335937 -4.988281 c 1.929687 -0.351563 3.101563 1.132812 2.332031 2.941406 z m 0 0" fill="url(#o)"/>
</svg>
